<svg version="1.2" xmlns="http://www.w3.org/2000/svg" viewBox="0 0 200 160" width="200" height="160"><style>.a{fill:none}.b{fill:#fff;stroke:#000;paint-order:stroke fill markers;stroke-linejoin:round;stroke-width:1.1}.c{fill:#fff}.d{fill:#1c96d4}.e{fill:#c61a41}.f{fill:#eeb034}</style><path fill-rule="evenodd" class="a" d="m-1.4 61.6h202.8v35.8h-202.8z"/><path fill-rule="evenodd" class="b" d="m56 87.4v-18.7h2.7v7.6h9.6v-7.6h2.7v18.7h-2.7v-8.9h-9.6v8.9zm17.4-16.5v-2.2h16.6v2.2h-6.8v16.5h-2.8v-16.5zm19.2 16.5v-18.7h4l5 12.8 5-12.8h4v18.7h-2.6v-16.4l-5.1 12.8h-2.6l-5.1-12.8v16.4zm23.2 0v-18.7h2.6v16.5h9.6v2.2zm15 0v-18.7h6q3.3 0 5 1.5 1.7 1.4 1.7 4.1 0 2.8-1.7 4.2-1.7 1.4-5 1.4h-3.3v7.5zm6-16.5h-3.4v6.9h3.4q1.9 0 2.9-0.9 1-0.8 1-2.6 0-1.7-1-2.5-1-0.9-2.9-0.9zm6 16.5l7.6-18.7h3l7.4 18.7h-2.7l-1.9-4.7h-8.8l-1.7 4.7zm12.5-6.9l-3.5-9.2-3.6 9.2zm21.1 4.2v-4.9h-4.4v-2.2h7v8.1q-1.6 1-3.4 1.5-1.9 0.6-3.9 0.6-4.7 0-7.3-2.6-2.5-2.5-2.5-7.1 0-4.6 2.5-7.1 2.6-2.5 7.3-2.5 1.9 0 3.6 0.4 1.7 0.4 3.1 1.3v2.7q-1.4-1.1-3.1-1.7-1.6-0.7-3.4-0.7-3.6 0-5.5 2-1.7 1.8-1.7 5.6 0 3.8 1.7 5.7 1.9 1.9 5.5 1.9 1.4 0 2.5-0.2 1-0.3 2-0.8zm7.5 2.7v-18.7h12.4v2.2h-9.9v5.4h9.5v2.2h-9.5v6.7h10v2.2z"/><path fill-rule="evenodd" class="c" d="m37 64.7q0.1 0.7-0.3 1.2l-16.7 23.9c-0.3 0.3-0.7 0.6-1.1 0.6-0.5 0.1-0.9 0-1.2-0.1l-0.4-0.3c-0.3-0.3-0.6-0.6-0.7-1 0-0.5 0-0.9 0.3-1.2l16.8-23.8c0.2-0.3 0.6-0.6 1-0.7 0.4 0 0.9 0 1.2 0.3l0.4 0.3c0.4 0.1 0.6 0.5 0.7 0.8zm-1 0.7q0.1-0.1 0.1-0.4-0.1-0.3-0.2-0.4l-0.5-0.3q-0.3-0.2-0.5-0.2-0.3 0-0.5 0.3l-2 2.9 1.6 1zm-23.6 18.8q-0.3 0-0.5-0.1l-8.6-6.5q-0.4-0.3-0.4-0.7 0-0.4 0.4-0.7l8.6-6.5c0.4-0.3 1-0.3 1.2 0.2 0.5 0.4 0.3 1-0.1 1.2l-7.6 5.8 7.6 5.6c0.3 0.3 0.4 0.7 0.3 1.1-0.2 0.3-0.4 0.6-0.9 0.6zm28.7 0c-0.4 0-0.7-0.3-0.8-0.6-0.2-0.4 0-0.8 0.3-1.1l7.5-5.6-7.5-5.8c-0.3-0.1-0.5-0.5-0.5-0.8 0.2-0.3 0.3-0.6 0.8-0.7 0.2-0.2 0.5-0.2 0.8 0.1l8.6 6.5q0.4 0.3 0.4 0.7 0 0.4-0.4 0.7l-8.6 6.5q-0.3 0.1-0.6 0.1z"/><path class="d" d="m21.7 69c1.4-0.5 2-1 2.4-2.4 0.6 1.4 1 1.9 2.5 2.4-1.5 0.5-1.9 0.9-2.5 2.3-0.5-1.4-1-1.8-2.4-2.3z"/><path class="e" d="m13.9 75.2c2.5-1 3.2-1.6 4.2-4 0.9 2.4 1.8 3 4.3 4-2.5 0.9-3.4 1.6-4.3 4-1-2.4-1.7-3.1-4.2-4z"/><path class="f" d="m31.6 79.9c1.8-0.5 2.4-1.1 3.1-2.8 0.6 1.7 1.2 2.3 3 2.8-1.8 0.7-2.4 1.2-3 3-0.7-1.8-1.3-2.3-3.1-3z"/></svg>